<svg width="580" height="400" xmlns="http://www.w3.org/2000/svg">
 <!-- Created with Method Draw - http://github.com/duopixel/Method-Draw/ -->
 <g>
  <title>background</title>
  <rect fill="#ffffff" id="canvas_background" height="402" width="582" y="-1" x="-1"/>
 </g>
 <g>
  <title>Layer 1</title>
  <rect id="svg_12" height="308" width="468" y="50" x="61" fill-opacity="null" stroke-opacity="null" stroke-width="1.5" stroke="#000" fill="none"/>
  <path id="svg_13" d="m65.218438,136.083688c9.065198,-0.044232 18.130392,-0.088471 27.19559,-0.132699c0.059686,-6.996349 0.119362,-13.992699 0.179043,-20.98904c9.02189,0 18.043785,0 27.06568,0c0,-7.039273 0,-14.078547 0,-21.117816c9.252928,0 18.505845,0 27.758773,0c0,-6.867581 0,-13.735162 0,-20.602744c9.138685,0 18.27737,0 27.416064,0c0,-6.867577 0,-13.735162 0,-20.602744c13.593802,0 27.187604,0 40.781406,0c0,3.433791 0,6.867581 0,10.301372c-9.024472,0 -18.048909,0 -27.073381,0c0,6.953425 0,13.906851 0,20.86028c-9.13868,0 -18.277364,0 -27.416064,0c0,6.953429 0,13.906854 0,20.86028c-9.138695,0 -18.27737,0 -27.416064,0c0,6.953425 0,13.906854 0,20.860268c-9.252928,0 -18.50585,0 -27.758768,0c0,7.039277 0,14.078547 0,21.117812c-13.70804,0 -27.416069,0 -41.124104,0c0.611108,-3.412325 -1.041798,-7.2601 0.391826,-10.554966l0,-0.000004z" fill-opacity="null" stroke-opacity="null" stroke-width="1.5" stroke="#000" fill="none"/>
  <path transform="rotate(2.003871202468872 508.34246826171847,327.5497131347655) " id="svg_14" d="m489.597666,340.211781c-0.012062,-14.042926 -0.024118,-28.085857 -0.036181,-42.128781c10.889622,0.161402 21.825427,-0.382357 32.678176,0.414456c5.292288,1.82001 4.529596,13.14979 4.443652,21.612256c-0.232157,6.381739 3.092111,19.032773 -5.542163,20.934333c-4.304647,0.000224 -4.321588,1.781695 -3.882208,5.004266c0.509895,4.827821 -0.970375,15.642748 -8.041899,8.78785l-19.61938,-14.624378l0.000002,-0.000002zm33.327493,-4.59063c0.017498,-12.622794 -0.128461,-23.391854 -0.85091,-31.708471c-6.418933,-2.828882 -15.092694,-1.452185 -22.355358,-1.495174c-2.854936,1.345366 6.772378,5.81263 8.814239,7.546006c7.751642,3.727027 10.064397,10.504987 8.725833,18.165085c0,2.979744 0,5.959496 0,8.93924c1.429473,-0.001676 4.386833,-0.687896 5.666198,-1.446694l-0.000002,0.000008z" stroke-width="1.5" fill="#000"/>
  <path id="svg_16" d="m407.223347,345.829657c-3.139819,-0.38348 -5.305349,-3.343389 -4.282031,-5.947843c0.632536,-2.524901 3.869969,-3.215601 6.016603,-4.548131c6.82025,-3.477126 13.679349,-6.897527 20.520749,-10.343749c0.359373,-1.681056 -1.09086,-2.72828 -2.640068,-3.518507c-3.099844,-2.115517 -2.930918,-6.331788 -0.30583,-8.686914c3.076584,-3.105289 9.550183,-2.129121 11.469934,1.54386c1.862268,1.632395 -0.035399,5.630757 -2.647491,3.706156c-0.272465,-2.186427 -2.446886,-4.750199 -5.316237,-3.36155c-2.993736,1.477728 -1.224792,4.922207 1.540322,5.616002c1.866462,1.074063 1.617658,3.066059 1.71669,4.74537c8.198807,4.206064 16.501047,8.268117 24.587491,12.632174c3.219365,2.14802 1.895375,7.318156 -2.158873,8.018798c-3.073638,0.38019 -6.22709,0.112401 -9.331537,0.216369c-13.055937,0.00866 -26.115295,0.085031 -39.169723,-0.072035l0.000002,0zm47.503287,-3.553316c2.350613,-2.012733 -2.045556,-3.095247 -3.493647,-4.08117c-6.668948,-3.364757 -13.316558,-6.765027 -20.064129,-10.01174c-7.906436,3.858251 -15.794957,7.755021 -23.554257,11.828292c-1.642977,0.565068 -0.499468,2.824106 1.028092,2.476212c15.024719,-0.027746 30.050888,0.068079 45.074456,-0.069878c0.332644,-0.036559 0.707424,0.013026 1.009486,-0.141718l0,0.000002z" stroke-width="1.5" fill="#000"/>
  <path id="svg_17" d="m234.185008,264.271666c0,4.878516 -25.743635,8.833334 -57.500018,8.833334m57.500018,-8.833334l0,0c0,4.878516 -25.743635,8.833334 -57.500018,8.833334c-31.756372,0 -57.499999,-3.954811 -57.499999,-8.833334m0,0l0,0c0,-4.87851 25.743627,-8.833332 57.499999,-8.833332c31.756384,0 57.500018,3.954821 57.500018,8.833332l0,35.333351c0,4.87851 -25.743635,8.833318 -57.500018,8.833318c-31.756372,0 -57.499999,-3.954808 -57.499999,-8.833318l0,-35.333351z" fill-opacity="null" stroke-opacity="null" stroke-width="1.5" stroke="null" fill="#000"/>
 </g>
</svg>
