<?xml version="1.0" encoding="utf-8"?>
<!-- Generator: Adobe Illustrator 21.1.0, SVG Export Plug-In . SVG Version: 6.00 Build 0)  -->
<svg version="1.1" id="Ebene_1" xmlns="http://www.w3.org/2000/svg" xmlns:xlink="http://www.w3.org/1999/xlink" x="0px" y="0px"
	 width="595.3px" height="425px" viewBox="0 0 595.3 425" style="enable-background:new 0 0 595.3 425;" xml:space="preserve">
<style type="text/css">
	.st0{fill:#FFFFFF;}
	.st1{fill:#B2B2B2;}
	.st2{fill:#706F6F;}
</style>
<g>
	<rect x="0" class="st0" width="595.3" height="425"/>
</g>
<g>
	<g>
		<circle class="st0" cx="297.6" cy="205.9" r="0"/>
	</g>
	<g>
		<rect x="225.2" y="186.6" class="st1" width="93.3" height="4.3"/>
		<path d="M318.8,191.1H225v-4.8h93.8V191.1z M225.5,190.6h92.8v-3.8h-92.8V190.6z"/>
	</g>
	<g>
		<polygon class="st1" points="368.1,186.6 368.1,176.7 363.8,176.7 363.8,186.6 341.2,186.6 341.2,190.9 363.8,190.9 363.8,200.8 
			368.1,200.8 368.1,190.9 368.1,190.9 432.5,190.9 432.5,186.6 		"/>
		<path d="M368.3,201.1h-4.8v-9.9h-22.7v-4.8h22.7v-9.9h4.8v9.9h64.4v4.8h-64.4V201.1z M364.1,200.6h3.8v-9.9h64.4v-3.8h-64.4V177
			h-3.8v9.9h-22.7v3.8h22.7V200.6z"/>
	</g>
	<g>
		<g>
			<path class="st2" d="M287.7,382.3C287.7,382.3,287.7,382.3,287.7,382.3c0-0.1,0.1-0.1,0.1-0.1c0.9-1.1,1.9-2.1,2.8-3.2
				c1.6-1.8,3.1-3.6,4.7-5.4c0,0,0-0.1,0-0.1c0,0,0,0,0,0c0,0,0,0.1,0,0.1c0.5,0.6,1.1,1.3,1.7,1.9c1.9,2.2,3.8,4.4,5.7,6.6
				c0.1,0.1,0.2,0.2,0.2,0.3c0,0,0,0,0,0c0,0-0.1,0-0.1,0c-1.6,0-3.3,0-4.9,0c0,0-0.1,0-0.1,0c0,2.2,0,11.3,0,13.5
				c-1.7,0-3.5,0-5.2,0c0-2.1,0-11.3,0-13.5c-0.1,0-0.1,0-0.1,0c-1.5,0-3,0-4.6,0C287.8,382.4,287.8,382.3,287.7,382.3z"/>
		</g>
	</g>
	<g>
		<polygon class="st1" points="521.5,29.2 368.1,29.2 363.8,29.2 184.1,29.2 179.9,29.2 73.8,29.2 69.6,29.2 69.6,33.4 69.6,365 
			69.6,369.3 73.8,369.3 221,369.3 225.2,369.3 284,369.3 284,365 225.2,365 225.2,235.2 284,235.2 284,230.9 184.1,230.9 
			184.1,222.3 179.9,222.3 179.9,230.9 179.9,235.2 184.1,235.2 221,235.2 221,365 73.8,365 73.8,33.4 179.9,33.4 179.9,186.6 
			179.9,190.9 179.9,199.6 179.9,199.6 184.1,199.6 184.1,199.6 184.1,190.9 202.5,190.9 202.5,186.6 184.1,186.6 184.1,186.6 
			184.1,33.4 363.8,33.4 363.8,154 368.1,154 368.1,33.4 521.5,33.4 521.5,186.6 455.2,186.6 455.2,190.9 521.5,190.9 521.5,365 
			368.1,365 368.1,235.2 368.1,230.9 368.1,223.5 363.8,223.5 363.8,230.9 306.7,230.9 306.7,235.2 363.8,235.2 363.8,365 
			306.7,365 306.7,369.3 363.8,369.3 368.1,369.3 521.5,369.3 525.7,369.3 525.7,365 525.7,190.9 525.7,186.6 525.7,33.4 
			525.7,29.2 		"/>
		<path d="M526,369.5H306.4v-4.8h57.2V235.4h-57.2v-4.8h57.2v-7.5h4.8v141.5h152.9V191.1H455v-4.8h66.3V33.7H368.3v120.6h-4.8V33.7
			H184.4v152.7h18.4v4.8h-18.4v8.7h-4.8V33.7H74.1v331.1h146.6V235.4h-41.1V222h4.8v8.7h99.9v4.8h-58.8v129.3h58.8v4.8H69.3V28.9
			H526V369.5z M306.9,369h218.5V29.4H69.8V369h213.9v-3.8H225V234.9h58.8v-3.8h-99.9v-8.7h-3.8v12.4h41.1v130.3H73.6V33.2h106.5
			v166.2h3.8v-8.7h18.4v-3.8h-18.4V33.2h180.2v120.6h3.8V33.2h153.9v153.7h-66.3v3.8h66.3v174.6H367.8V223.7h-3.8v7.5h-57.2v3.8
			h57.2v130.3h-57.2V369z"/>
	</g>
</g>
</svg>
