<?xml version="1.0" ?><svg style="enable-background:new 0 0 48 48;" version="1.1" viewBox="0 0 48 48" xml:space="preserve" xmlns="http://www.w3.org/2000/svg" xmlns:xlink="http://www.w3.org/1999/xlink"><style type="text/css">
</style><g class="st0" id="Padding__x26__Artboard"/><g id="Icons"><g><circle class="st1" cx="24" cy="19.15045" r="7.26353"/><path class="st1" d="M19.12193,17.23642c0.48483-2.4277,2.8459-4.00272,5.2736-3.51789"/><path class="st1" d="M11.54175,36.11307c0-3.88968,3.18246-7.07214,7.07214-7.07214h10.77223    c3.88968,0,7.07214,3.18246,7.07214,7.07214"/><path class="st1" d="M18.98164,18.68699c0,0-0.10733,0.99282,0,1.44898"/><circle class="st1" cx="24" cy="19.15045" r="7.26353"/><path class="st1" d="M19.12193,17.23642c0.48483-2.4277,2.8459-4.00272,5.2736-3.51789"/><path class="st1" d="M11.54175,36.11307c0-3.88968,3.18246-7.07214,7.07214-7.07214h10.77223    c3.88968,0,7.07214,3.18246,7.07214,7.07214"/><path class="st1" d="M18.98164,18.68699c0,0-0.10733,0.99282,0,1.44898"/></g></g></svg>
