<?xml version="1.0" encoding="UTF-8" standalone="no"?>
<!-- Created with Inkscape (http://www.inkscape.org/) -->

<svg>
  <defs
     id="defs4" />
  <sodipodi:namedview/>
  <g
     id="layer1"
     transform="translate(0,-689.88016)">
    <path
       style="fill:#000000"
       d="m 145.89286,1050.7908 c -1.67337,-1.6734 -1.96429,-6.28 -1.96429,-31.1043 l 0,-29.14 -2.8125,-0.6221 c -1.54688,-0.3421 -5.47443,-1.6503 -8.72788,-2.9071 l -5.91538,-2.2851 -19.70962,20.2977 c -21.887273,22.5402 -22.745973,23.0026 -30.813323,16.5915 -2.51485,-1.9986 -13.27969,-12.009 -23.92188,-22.2454 -24.41224,-23.48134 -24.11414,-21.99404 -7.81201,-38.97684 6.34558,-6.61052 14.55304,-15.18092 18.23879,-19.04535 l 6.70136,-7.02623 -4.96104,-10.47377 c -2.72856,-5.76057 -5.29336,-11.45815 -5.69955,-12.66127 -0.67266,-1.99244 -3.13056,-2.1875 -27.56345,-2.1875 -22.71965,0 -27.12556,-0.30061 -28.78923,-1.96429 -2.9503499,-2.95034 -2.9503499,-68.12109 0,-71.07142 1.65403,-1.65404 5.89116,-1.96429 26.82657,-1.96429 l 24.86229,0 1.8142,-5.9375 c 0.99781,-3.26563 2.80036,-8.53364 4.00567,-11.70671 l 2.19148,-5.7692 -17.10184,-16.7308 c -13.6662,-13.36969 -17.0979,-17.40833 -17.08225,-20.10339 0.0234,-4.02615 5.86169,-11.10739 28.39712,-34.44269 20.43842,-21.16386 19.77176,-21.05932 35.853353,-5.62221 6.26677,6.01562 13.43863,12.8131 15.93747,15.1055 l 4.54335,4.16799 10.45665,-4.98316 c 5.75116,-2.74075 12.56602,-5.71372 15.14415,-6.60661 l 4.6875,-1.62344 0,-22.78461 c 0,-19.0466 0.32226,-23.10686 1.96429,-24.74888 1.68855,-1.68856 6.64542,-1.9616 35.3125,-1.94515 18.77642,0.0108 34.16751,0.53595 35.22321,1.20187 1.51816,0.95765 1.99395,5.61166 2.5,24.45407 l 0.625,23.27133 6.4594,2.27234 c 3.55269,1.24978 9.42449,3.61781 13.04859,5.26229 l 6.5892,2.98996 15.7014,-15.99824 c 17.5367,-17.86824 18.9999,-18.5418 26.8051,-12.33903 2.5149,1.99855 13.2797,12.00895 23.9219,22.24533 17.1044,16.45218 19.3494,19.07848 19.3494,22.63554 0,3.44325 -2.3246,6.48009 -16.1085,21.04412 l -16.1085,17.02019 2.965,6.7042 c 1.6307,3.68731 4.147,10.36331 5.5918,14.83555 l 2.627,8.13134 24.8023,0 c 20.8809,0 25.1129,0.31056 26.7666,1.96429 1.6886,1.68855 1.9616,6.64542 1.9452,35.3125 -0.011,18.78668 -0.5358,34.16693 -1.2024,35.22321 -0.973,1.54187 -6.091,1.98604 -28.8065,2.5 l -27.6233,0.625 -3.738,8.75 -3.738,8.75 19.4387,18.8598 c 15.4006,14.94202 19.4386,19.54442 19.4386,22.15542 0,3.7373 -6.4542,11.4794 -29.6338,35.54734 -18.4456,19.1524 -18.5117,19.166 -32.5458,6.7011 -5.3324,-4.7363 -11.9454,-10.9718 -14.6954,-13.8567 -2.75,-2.8849 -7.5889,-7.4302 -10.7531,-10.1006 l -5.753,-4.85534 -10.2834,4.33704 c -5.65592,2.3853 -11.08265,4.337 -12.05947,4.337 -1.48416,0 -1.77602,4.8126 -1.77602,29.2857 0,24.9567 -0.29036,29.5761 -1.96429,31.25 -1.6882,1.6882 -6.6829,1.9643 -35.53571,1.9643 -28.85281,0 -33.84751,-0.2761 -35.53571,-1.9643 z m 56.54081,-121.17677 c 19.26897,-6.12434 37.12019,-24.04146 43.57319,-43.73399 9.1014,-27.7746 -0.6104,-56.80048 -25.20639,-75.33512 -29.82228,-22.47296 -70.59841,-15.8252 -94.08202,15.33822 -30.1558,40.01764 -6.64427,96.0891 44.79598,106.83165 7.86708,1.64292 19.74064,0.45217 30.91924,-3.10076 z"
       id="path3602" />
  </g>
</svg>
