<?xml version="1.0" encoding="UTF-8" standalone="no"?>
<!-- Created with Inkscape (http://www.inkscape.org/) -->

<svg
   xmlns:dc="http://purl.org/dc/elements/1.1/"
   xmlns:cc="http://creativecommons.org/ns#"
   xmlns:rdf="http://www.w3.org/1999/02/22-rdf-syntax-ns#"
   xmlns:svg="http://www.w3.org/2000/svg"
   xmlns="http://www.w3.org/2000/svg"
   xmlns:sodipodi="http://sodipodi.sourceforge.net/DTD/sodipodi-0.dtd"
   xmlns:inkscape="http://www.inkscape.org/namespaces/inkscape"
   width="362.73001"
   height="362.48199"
   viewBox="0 0 362.73001 362.482"
   id="svg2"
   version="1.1"
   inkscape:version="0.91 r13725"
   sodipodi:docname="gear.svg">
  <defs
     id="defs4" />
  <sodipodi:namedview
     id="base"
     pagecolor="#ffffff"
     bordercolor="#666666"
     borderopacity="1.0"
     inkscape:pageopacity="0.0"
     inkscape:pageshadow="2"
     inkscape:zoom="0.35"
     inkscape:cx="375"
     inkscape:cy="520"
     inkscape:document-units="px"
     inkscape:current-layer="layer1"
     showgrid="false"
     units="px"
     inkscape:window-width="1920"
     inkscape:window-height="1176"
     inkscape:window-x="1920"
     inkscape:window-y="24"
     inkscape:window-maximized="1" />
  <metadata
     id="metadata7">
    <rdf:RDF>
      <cc:Work
         rdf:about="">
        <dc:format>image/svg+xml</dc:format>
        <dc:type
           rdf:resource="http://purl.org/dc/dcmitype/StillImage" />
        <dc:title></dc:title>
      </cc:Work>
    </rdf:RDF>
  </metadata>
  <g
     inkscape:label="Ebene 1"
     inkscape:groupmode="layer"
     id="layer1"
     transform="translate(0,-689.88016)">
    <path
       style="fill:#000000"
       d="m 149.03574,1050.7908 c -1.67337,-1.6734 -1.96429,-6.2801 -1.96429,-31.1043 l 0,-29.13996 -2.8125,-0.6221 c -1.54688,-0.3421 -5.47443,-1.6504 -8.72788,-2.9071 l -5.91538,-2.2851 -19.70962,20.29756 c -21.887273,22.5403 -22.745973,23.0026 -30.813323,16.5915 -2.51485,-1.9985 -13.27969,-12.0089 -23.92188,-22.2453 -24.41224,-23.48136 -24.11414,-21.99406 -7.81201,-38.97676 6.34558,-6.6105 14.55304,-15.181 18.23879,-19.0454 l 6.70136,-7.0262 -4.96104,-10.47378 c -2.72856,-5.76057 -5.29336,-11.45814 -5.69955,-12.66127 -0.67266,-1.99244 -3.13056,-2.1875 -27.56345,-2.1875 -22.71965,0 -27.12556,-0.30061 -28.7892299,-1.96429 -2.95035,-2.95034 -2.95035,-68.12109 0,-71.07142 1.6540299,-1.65404 5.8911599,-1.96429 26.8265699,-1.96429 l 24.86229,0 1.8142,-5.9375 c 0.99781,-3.26562 2.80036,-8.53364 4.00567,-11.70671 l 2.19148,-5.7692 -17.10184,-16.7308 c -13.6662,-13.36969 -17.0979,-17.40833 -17.08225,-20.10339 0.0234,-4.02615 5.86169,-11.10739 28.39712,-34.44269 20.43842,-21.16386 19.77176,-21.05932 35.85334,-5.62221 6.266783,6.01563 13.438643,12.8131 15.937483,15.1055 l 4.54335,4.16799 10.45665,-4.98317 c 5.75116,-2.74074 12.56602,-5.71371 15.14415,-6.6066 l 4.6875,-1.62344 0,-22.7846 c 0,-19.04661 0.32226,-23.10686 1.96429,-24.74889 1.68855,-1.68856 6.64542,-1.9616 35.3125,-1.94515 18.77642,0.0107 34.16751,0.53595 35.22321,1.20187 1.51816,0.95765 1.99395,5.61166 2.5,24.45407 l 0.625,23.27133 6.4594,2.27234 c 3.55267,1.24978 9.42454,3.61781 13.04859,5.26229 l 6.58917,2.98996 15.70145,-15.99824 c 17.5367,-17.86824 18.9999,-18.5418 26.8051,-12.33903 2.5148,1.99855 13.2797,12.00895 23.9219,22.24533 17.1044,16.45218 19.3494,19.07848 19.3494,22.63554 0,3.44325 -2.3246,6.48009 -16.1085,21.04413 l -16.1085,17.02018 2.9649,6.7042 c 1.6307,3.68732 4.1471,10.36332 5.5919,14.83555 l 2.627,8.13134 24.8023,0 c 20.8809,0 25.1129,0.31056 26.7666,1.96429 1.6886,1.68855 1.9616,6.64542 1.9452,35.3125 -0.011,18.78668 -0.5358,34.16693 -1.2024,35.22321 -0.973,1.54187 -6.091,1.98604 -28.8065,2.5 l -27.6233,0.625 -3.738,8.75 -3.738,8.75005 19.4387,18.8597 c 15.4006,14.9421 19.4386,19.5445 19.4386,22.1555 0,3.7373 -6.4542,11.4794 -29.6338,35.54726 -18.4456,19.1524 -18.5117,19.166 -32.5458,6.701 -5.3325,-4.7363 -11.9454,-10.9718 -14.6954,-13.85656 -2.75,-2.8849 -7.5889,-7.4302 -10.75309,-10.1006 l -5.75307,-4.8553 -10.2834,4.337 c -5.65588,2.3853 -11.08261,4.337 -12.05943,4.337 -1.48416,0 -1.77602,4.8126 -1.77602,29.28566 0,24.9567 -0.29036,29.576 -1.96429,31.25 -1.6882,1.6882 -6.6829,1.9643 -35.53571,1.9643 -28.85281,0 -33.84751,-0.2761 -35.53571,-1.9643 z m 67.07598,-34.4831 0.33473,-30.19726 8.125,-2.7457 c 4.46875,-1.5101 11.52476,-4.4647 15.68001,-6.5657 l 7.55503,-3.82 21.36707,20.4876 21.367,20.48756 21.673,-22.63346 21.673,-22.6336 -20.8775,-20.1535 -20.8774,-20.1536 3.6592,-6.87495 c 2.0126,-3.78125 4.5755,-9.54688 5.6954,-12.8125 l 2.0361,-5.9375 28.0246,0 28.0245,0 0,-31.25 0,-31.25 -26.2892,0 c -19.9711,0 -26.3916,-0.37553 -26.7149,-1.5625 -3.2455,-11.9134 -5.4104,-18.1194 -9.133,-26.1802 l -4.4416,-9.61771 16.7268,-17.64079 c 9.1998,-9.70244 16.8854,-18.08445 17.0792,-18.62669 0.3909,-1.09391 -42.6245,-42.62211 -44.1485,-42.62211 -0.5271,0 -8.3261,7.67176 -17.3311,17.04835 l -16.37271,17.04835 -8.75,-4.37263 c -4.8125,-2.40494 -12.54688,-5.62256 -17.1875,-7.15026 l -8.4375,-2.77764 0,-23.64808 0,-23.64809 -31.25,0 -31.25,0 0,24.14672 0,24.14673 -7.1875,2.22214 c -3.95313,1.22219 -12.45056,4.97014 -18.88319,8.32879 l -11.69568,6.10662 -16.82611,-15.913 c -9.254343,-8.75215 -17.263763,-16.07153 -17.798683,-16.2653 -1.39045,-0.50364 -42.92098,43.18414 -42.40908,44.61195 0.23388,0.65236 8.30024,8.67958 17.92524,17.83824 9.625,9.15866 17.40097,17.21461 17.27994,17.90211 -0.121,0.6875 -1.66071,4.69245 -3.4215,8.89988 -1.76079,4.20743 -3.97557,10.67618 -4.92172,14.375 l -1.72027,6.72512 -26.42073,0.33736 -26.42072,0.33737 0,31.22513 0,31.22514 28.02806,0 28.02807,0 1.48577,4.6875 c 0.81719,2.57813 4.21152,9.92538 7.54299,16.32723 l 6.0572,11.63972 -19.00855,19.9755 c -10.4547,10.9866 -19.16707,20.4274 -19.36084,20.9797 -0.43555,1.2414 42.70886,42.64036 44.43821,42.64036 0.6865,0 3.38859,-2.3907 6.00463,-5.3125 2.61605,-2.9219 11.624073,-12.5286 20.017833,-21.34816 l 15.26138,-16.0355 4.15591,2.1491 c 2.28575,1.182 7.82755,3.3873 12.31513,4.9007 l 8.15921,2.7517 0.33472,30.19726 0.33473,30.1974 31.20555,0 31.20555,0 0.33472,-30.1974 z m -41.06368,-77.26986 c -45.94406,-6.963 -75.13568,-52.59861 -61.2519,-95.75576 19.43952,-60.4269 98.82906,-70.83444 133.49146,-17.5 18.45016,28.38894 14.05596,67.48145 -10.32588,91.86328 -15.77097,15.77098 -41.14868,24.53948 -61.91368,21.39248 z m 30.52851,-9.4238 c 19.26898,-6.1243 37.12024,-24.04143 43.57322,-43.73395 9.10139,-27.7746 -0.61041,-56.80047 -25.20642,-75.33513 -29.82228,-22.47295 -70.59841,-15.8252 -94.08203,15.33823 -30.1558,40.01764 -6.64426,96.0891 44.79599,106.83165 7.86708,1.6429 19.74064,0.4522 30.91924,-3.1008 z"
       id="path3417"
       inkscape:connector-curvature="0" />
  </g>
</svg>
