<?xml version="1.0" encoding="UTF-8" standalone="no"?>
<!-- Created with Inkscape (http://www.inkscape.org/) -->

<svg>
  <defs
     id="defs4" />
  <g
     id="layer1"
     transform="translate(0,-689.88016)">
    <path
       style="fill:#000000"
       d="M 28.497697,1023.3552 0.00333827,994.88012 61.895845,933.06955 123.78835,871.25891 61.891771,809.4301 -0.00481003,747.60125 28.774829,718.87173 l 28.779639,-28.72952 61.892402,61.8105 61.89241,61.81051 61.89499,-61.81308 61.89497,-61.81308 28.7755,28.74074 28.77551,28.74075 -61.89503,61.81311 -61.89501,61.81312 61.89659,61.82886 61.89657,61.82877 -28.77964,28.72959 -28.77964,28.7294 -61.89239,-61.81048 -61.89242,-61.81048 -61.62654,61.54498 c -33.894585,33.84978 -61.872715,61.54498 -62.173604,61.54498 -0.30089,0 -13.369543,-12.8138 -29.041439,-28.4752 z"
       id="path3691" />
  </g>
</svg>
